<?xml version="1.0" encoding="UTF-8"?>
<svg xmlns="http://www.w3.org/2000/svg" xmlns:xlink="http://www.w3.org/1999/xlink" width="324" height="288" viewBox="0 0 324 288">
<defs>
<g>
<g id="glyph-0-0">
<path d="M 2.484375 -4.9375 L 2.484375 0 L 3.328125 0 L 3.328125 -6.9375 L 2.765625 -6.9375 C 2.46875 -5.875 2.28125 -5.734375 0.984375 -5.5625 L 0.984375 -4.9375 Z M 2.484375 -4.9375 "/>
</g>
<g id="glyph-0-1">
<path d="M 4.859375 -0.828125 L 1.28125 -0.828125 C 1.359375 -1.40625 1.671875 -1.78125 2.5 -2.28125 L 3.46875 -2.828125 C 4.40625 -3.34375 4.90625 -4.0625 4.90625 -4.90625 C 4.90625 -5.484375 4.671875 -6.03125 4.265625 -6.40625 C 3.859375 -6.765625 3.375 -6.9375 2.71875 -6.9375 C 1.859375 -6.9375 1.21875 -6.625 0.84375 -6.03125 C 0.609375 -5.671875 0.5 -5.234375 0.484375 -4.53125 L 1.328125 -4.53125 C 1.359375 -5.015625 1.40625 -5.28125 1.53125 -5.515625 C 1.75 -5.9375 2.1875 -6.203125 2.703125 -6.203125 C 3.46875 -6.203125 4.03125 -5.640625 4.03125 -4.890625 C 4.03125 -4.34375 3.71875 -3.859375 3.125 -3.515625 L 2.234375 -3 C 0.8125 -2.171875 0.40625 -1.53125 0.328125 -0.015625 L 4.859375 -0.015625 Z M 4.859375 -0.828125 "/>
</g>
<g id="glyph-0-2">
<path d="M 2.125 -3.1875 L 2.578125 -3.1875 C 3.5 -3.1875 3.984375 -2.765625 3.984375 -1.921875 C 3.984375 -1.0625 3.46875 -0.53125 2.59375 -0.53125 C 1.65625 -0.53125 1.203125 -1 1.15625 -2.015625 L 0.3125 -2.015625 C 0.34375 -1.453125 0.4375 -1.09375 0.609375 -0.78125 C 0.953125 -0.109375 1.625 0.21875 2.546875 0.21875 C 3.953125 0.21875 4.859375 -0.625 4.859375 -1.9375 C 4.859375 -2.828125 4.515625 -3.296875 3.703125 -3.59375 C 4.34375 -3.84375 4.65625 -4.328125 4.65625 -5.03125 C 4.65625 -6.21875 3.875 -6.9375 2.578125 -6.9375 C 1.203125 -6.9375 0.484375 -6.171875 0.453125 -4.703125 L 1.296875 -4.703125 C 1.3125 -5.125 1.34375 -5.359375 1.453125 -5.578125 C 1.640625 -5.96875 2.0625 -6.203125 2.59375 -6.203125 C 3.34375 -6.203125 3.796875 -5.75 3.796875 -5 C 3.796875 -4.515625 3.609375 -4.21875 3.25 -4.046875 C 3.015625 -3.953125 2.703125 -3.921875 2.125 -3.90625 Z M 2.125 -3.1875 "/>
</g>
</g>
</defs>
<rect x="-32.4" y="-28.8" width="388.8" height="345.6" fill="rgb(100%, 100%, 100%)" fill-opacity="1"/>
<path fill-rule="nonzero" fill="rgb(78.823529%, 43.529412%, 35.686275%)" fill-opacity="0.45098" stroke-width="1.125" stroke-linecap="round" stroke-linejoin="round" stroke="rgb(78.823529%, 43.529412%, 35.686275%)" stroke-opacity="1" stroke-miterlimit="10" d="M 96.847656 144.519531 L 227.152344 144.519531 L 162 257.363281 Z M 96.847656 144.519531 "/>
<path fill="none" stroke-width="0.75" stroke-linecap="round" stroke-linejoin="round" stroke="rgb(49.803922%, 49.803922%, 49.803922%)" stroke-opacity="1" stroke-miterlimit="10" d="M 162 31.671875 L 31.695312 257.363281 L 292.304688 257.363281 Z M 162 31.671875 "/>
<g fill="rgb(40%, 40%, 40%)" fill-opacity="1">
<use xlink:href="#glyph-0-0" x="159.5" y="24.469727"/>
</g>
<g fill="rgb(40%, 40%, 40%)" fill-opacity="1">
<use xlink:href="#glyph-0-1" x="29.195312" y="270.395508"/>
</g>
<g fill="rgb(40%, 40%, 40%)" fill-opacity="1">
<use xlink:href="#glyph-0-2" x="289.804688" y="270.395508"/>
</g>
<path fill-rule="nonzero" fill="rgb(100%, 100%, 100%)" fill-opacity="0.54902" stroke-width="0.825" stroke-linecap="round" stroke-linejoin="round" stroke="rgb(14.901961%, 14.901961%, 14.901961%)" stroke-opacity="1" stroke-miterlimit="10" d="M 166.589844 121.949219 C 166.589844 128.070312 157.410156 128.070312 157.410156 121.949219 C 157.410156 115.828125 166.589844 115.828125 166.589844 121.949219 "/>
<path fill-rule="nonzero" fill="rgb(100%, 100%, 100%)" fill-opacity="0.54902" stroke-width="0.825" stroke-linecap="round" stroke-linejoin="round" stroke="rgb(14.901961%, 14.901961%, 14.901961%)" stroke-opacity="1" stroke-miterlimit="10" d="M 114.46875 212.226562 C 114.46875 218.34375 105.289062 218.34375 105.289062 212.226562 C 105.289062 206.105469 114.46875 206.105469 114.46875 212.226562 "/>
<path fill-rule="nonzero" fill="rgb(100%, 100%, 100%)" fill-opacity="0.54902" stroke-width="0.825" stroke-linecap="round" stroke-linejoin="round" stroke="rgb(14.901961%, 14.901961%, 14.901961%)" stroke-opacity="1" stroke-miterlimit="10" d="M 218.710938 212.226562 C 218.710938 218.34375 209.53125 218.34375 209.53125 212.226562 C 209.53125 206.105469 218.710938 206.105469 218.710938 212.226562 "/>
</svg>
